PathFileType	4	(X/Y/Z)	8_coords_data.trc
DataRate	CameraRate	NumFrames	NumMarkers	Units	OrigDataRate	OrigDataStartFrame	OrigNumFrames
30.0	30.0	5	21	m	30.0	1	53
Frame#	Time	THUMB_TIP	THUMB_IP	THUMB_MCP	THUMB_CMC	INDEX_TIP	INDEX_DIP	INDEX_PIP	INDEX_MCP	MIDDLE_TIP	MIDDLE_DIP	MIDDLE_PIP	MIDDLE_MCP	RING_TIP	RING_DIP	RING_PIP	RING_MCP	PINKY_TIP	PINKY_DIP	PINKY_PIP	PINKY_MCP	WRIST
X1	Y1	Z1	X2	Y2	Z2	X3	Y3	Z3	X4	Y4	Z4	X5	Y5	Z5	X6	Y6	Z6	X7	Y7	Z7	X8	Y8	Z8	X9	Y9	Z9	X10	Y10	Z10	X11	Y11	Z11	X12	Y12	Z12	X13	Y13	Z13	X14	Y14	Z14	X15	Y15	Z15	X16	Y16	Z16	X17	Y17	Z17	X18	Y18	Z18	X19	Y19	Z19	X20	Y20	Z20	X21	Y21	Z21
0	-2.749317978547796e-18	0.512729245383564	0.001049471018859105	-0.1583574430066905	0.5004288019561571	-0.011914748337084835	-0.1439134785931324	0.48880500735107923	-0.023809035587603833	-0.11760315115729261	0.4790930232381361	-0.02906379084226962	-0.07438330719871838	0.5074298342546527	-0.019380474438643547	-0.10201677999580169	0.524472827114429	-0.015949365884390332	-0.10709259406553912	0.5318441201460329	0.003472446588835054	-0.12125123355869288	0.4921053087259495	0.01866280410896015	-0.11932354081091961	0.5069926219909079	-0.01780231441958935	-0.08802034777653206	0.5234505572380732	-0.011754169165705597	-0.09255425408214096	0.5377504924746638	0.010861708037154028	-0.10410602886242867	0.49786643476219117	0.030861742715622364	-0.10178041620159678	0.5093158142344995	-0.009835745679886765	-0.07588801228314374	0.5263795626586192	-0.0045475147317837195	-0.07830939683704585	0.5419918843532423	0.013823748534393276	-0.08454895421785591	0.5076470059693263	0.03511671109037484	-0.0832223388313933	0.5122148089728095	-0.010438401218172633	-0.06289234797184767	0.5288847802558668	-0.006883876155054369	-0.06446632668761992	0.540151907205325	0.010741081976101685	-0.06626207727714811	0.5110579254944768	0.031588551463940795	-0.06181160593554158	0.4622830810018609	-0.023011742144276925	-0.051989820119430985
1	0.03333333333333339	0.5124233834692778	0.0017018691901729	-0.1584654759175506	0.5001562191689806	-0.010937368561258376	-0.14370856739671511	0.4880481707233584	-0.023155170320409812	-0.11776747098556581	0.4794072873043457	-0.028386286488074175	-0.07431795364210814	0.5071304289403006	-0.0195657785909068	-0.10121967151198794	0.5240192323676979	-0.015954382965658875	-0.10667183992727661	0.5319800907160701	0.003343419825650673	-0.12068002948856105	0.4923596246926313	0.018876792652852692	-0.11907718991559191	0.5071551826872956	-0.017625919253651423	-0.08820613170827579	0.5238782706082723	-0.01188972799997745	-0.09213480073080166	0.5381544773625148	0.010724646622942813	-0.10371882123856782	0.49829701457623365	0.030794439540084317	-0.10154304700779987	0.5093296819532886	-0.008868204461682017	-0.07588538804816991	0.526537737364931	-0.003969523796888086	-0.07809576283408748	0.5421400533582648	0.014405986404152471	-0.08434782965199827	0.5075422154060185	0.035287563322946025	-0.08305547195591795	0.5122885365770646	-0.009926044726474959	-0.0626012632137361	0.5290575110539688	-0.0067451047831385	-0.06389861284657311	0.5401105379108676	0.01099552026168249	-0.06587670266246659	0.5108956248432769	0.031742275953698496	-0.061760340954729376	0.4622830810018609	-0.023011742144276925	-0.051989820119430985
2	0.06666666666666676	0.5121374431487495	0.002157882854037396	-0.15851690010901087	0.4999062678330102	-0.010225602366630282	-0.14351531205356977	0.4874255951146865	-0.02269484045591308	-0.11787216657625216	0.47962678369995304	-0.027899079814707517	-0.07426042007128175	0.5069322892304636	-0.01971893970596106	-0.1005951050794584	0.523686668243552	-0.01595957567003692	-0.1063534004809801	0.5320893242933239	0.003239042443610174	-0.12023930221027271	0.49256147149418794	0.019030324401618226	-0.118890094586317	0.507285340730328	-0.017462953535657966	-0.08838855942583956	0.524207416685859	-0.011991574491838963	-0.09181016090966287	0.538468722103343	0.010620622011870307	-0.10341676623020687	0.49862857211997	0.03073752941611252	-0.10136240336267402	0.5093474893098721	-0.008126820886996566	-0.07588436495419865	0.5266602824570115	-0.003533755652765924	-0.07792665415959321	0.5422557886249959	0.014845090832534935	-0.08418590077832505	0.5074686673912535	0.035411961412206705	-0.0829285763063054	0.5123653004191934	-0.009528657858628109	-0.062380000930992	0.5292031319840163	-0.006643551223611266	-0.06345869824684836	0.5400794577471828	0.011189789673416328	-0.06557754447625797	0.5107734612302466	0.0318576674917731	-0.06171997456311373	0.4622830810018608	-0.023011742144276925	-0.051989820119430985
3	0.10000000000000014	0.511890728244984	0.0024590017649775975	-0.1585448757355543	0.4996959631192386	-0.00973321672881955	-0.14335812125253813	0.48694871681642204	-0.02238656150991336	-0.11793725231487007	0.47977599801281257	-0.02756304979091162	-0.07421487733316268	0.5068172734056936	-0.01984031186434676	-0.10013475830492738	0.5234654279740797	-0.015968540534583853	-0.1061221063186269	0.5321776380281946	0.0031587054879228527	-0.11991542675162925	0.49271708187080177	0.01913226185808692	-0.11875521184117588	0.5073895420249926	-0.017326820757889605	-0.08854265049044097	0.5244516373063142	-0.01206238142722904	-0.09157094756056083	0.5387053652876871	0.010547264521110877	-0.10319182096679588	0.49887392240619033	0.030690813425223284	-0.10123184226137763	0.5093684356818645	-0.007594116316048338	-0.07588185967610617	0.5267534246684114	-0.003224867705794221	-0.07779806021869995	0.5423445967867094	0.01515670779649525	-0.08406008968455542	0.5074225270137507	0.03549571493263792	-0.08283752455805404	0.5124376816304183	-0.00923781787551159	-0.06222057784903534	0.5293217665944612	-0.006574895252303703	-0.06313519144492652	0.5400591885171075	0.011330176021110083	-0.06535514913575124	0.5106871477520266	0.031939180423503855	-0.06168968738632019	0.462283081001861	-0.023011742144276925	-0.051989820119430985
4	0.13333333333333353	0.5116904676331027	0.002637481678060216	-0.15857010933526455	0.499531114851117	-0.00942156188391996	-0.14324922136186438	0.48661410812088557	-0.022198425352437212	-0.11797625760535119	0.47987171714892995	-0.02734806968643344	-0.0741822930986451	0.5067679058282103	-0.01993104139228563	-0.09982567623283067	0.5233427243318763	-0.015982768759444044	-0.10596461219823058	0.5322490447898031	0.003100874914244045	-0.11969420917106338	0.4928321589025132	0.019190845278180158	-0.11866559134309024	0.5074708310271246	-0.017225279107696778	-0.08865391919466392	0.5246233246095579	-0.012105540030068807	-0.09140714197562405	0.5388752920171679	0.010501470731055562	-0.10303529915803364	0.49904492780931353	0.030653787751361405	-0.10114476304815115	0.5093914450713201	-0.007247663964139006	-0.07587643636150931	0.5268223159991029	-0.0030264389232361744	-0.07770564325331447	0.5424109099645614	0.015357557282960066	-0.0839669850161186	0.5073996886905364	0.035544714228312735	-0.08277790412527941	0.5125008891658481	-0.009042578922098587	-0.06211501537574604	0.5294144951484462	-0.006534635723258186	-0.06291511135549444	0.5400492075763109	0.011423479230349143	-0.06520006603549311	0.5106320084997876	0.03199142314537495	-0.06166856032254964	0.4622830810018609	-0.023011742144276925	-0.051989820119430985
